<svg xmlns="http://www.w3.org/2000/svg" width="302.131" height="112.367" viewBox="0 0 302.131 112.367">
  <g id="Group_145" data-name="Group 145" transform="translate(-19414.457 -2797.646)">
    <g id="Group_144" data-name="Group 144" transform="translate(19414.957 2799.146)">
      <path id="Path_1" data-name="Path 1" d="M592.667,57.256c0,19.907-11.425,36.045-25.518,36.045s-25.518-16.138-25.518-36.045,11.425-36.045,25.518-36.045S592.667,37.349,592.667,57.256Z" transform="translate(-531.966 -21.211)" fill="none" stroke="#717d14" stroke-linecap="round" stroke-linejoin="round" stroke-width="3"/>
      <path id="Path_3" data-name="Path 3" d="M503.874,185.265a21.125,21.125,0,0,1-4.459-2.292,30.041,30.041,0,0,1-3.958-3.1,36.88,36.88,0,0,1-3.453-3.66,41.4,41.4,0,0,1-2.966-4.068,37.228,37.228,0,0,1-2.445-4.411,34.346,34.346,0,0,1-1.723-4.745,44.386,44.386,0,0,1-1.6-9.936,51.869,51.869,0,0,1,.455-10.048,46.859,46.859,0,0,1,2.457-9.747,40.539,40.539,0,0,1,4.585-8.93,35.943,35.943,0,0,1,6.759-7.382h0a.04.04,0,0,1,.056,0,.041.041,0,0,1,.01.022v0c.215,1.636.541,3.257.9,4.865s.772,3.207,1.23,4.789a84.554,84.554,0,0,0,3.319,9.3,74.447,74.447,0,0,0,4.411,8.805c.828,1.415,1.712,2.814,2.575,4.223s1.735,2.821,2.559,4.261a71.839,71.839,0,0,1,4.429,8.953,38.985,38.985,0,0,1,2.59,9.711,29.824,29.824,0,0,1,.193,5.058,26.082,26.082,0,0,1-.71,5.019,23.319,23.319,0,0,1-1.729,4.749,21.837,21.837,0,0,1-2.7,4.223.042.042,0,0,1-.058.006.042.042,0,0,1-.011-.048c.652-1.535,1.3-3.037,1.843-4.576.28-.764.515-1.542.754-2.314.224-.778.423-1.56.607-2.345a29.721,29.721,0,0,0,.676-4.783,28.485,28.485,0,0,0-.153-4.837,37.726,37.726,0,0,0-2.445-9.41,70.67,70.67,0,0,0-4.3-8.832q-1.21-2.149-2.467-4.283c-.834-1.426-1.686-2.838-2.5-4.293a75.729,75.729,0,0,1-7.337-18.463,63.014,63.014,0,0,1-1.762-9.769l.066.027h0a35.748,35.748,0,0,0-6.545,7.5,41.6,41.6,0,0,0-4.407,8.912,46.66,46.66,0,0,0-1.411,4.774c-.377,1.617-.7,3.247-.923,4.892a51.264,51.264,0,0,0-.406,9.935,47.01,47.01,0,0,0,1.58,9.8,33.815,33.815,0,0,0,1.664,4.671,36.752,36.752,0,0,0,2.38,4.355,39.848,39.848,0,0,0,6.21,7.747,33.033,33.033,0,0,0,3.83,3.178,20.938,20.938,0,0,0,4.348,2.415h0a.041.041,0,0,1-.028.076Z" transform="translate(-483.202 -101.103)" fill="#717d14" stroke="#717d14" stroke-miterlimit="10" stroke-width="1"/>
      <path id="Path_5" data-name="Path 5" d="M670.985,206.406a20.931,20.931,0,0,0,4.593-1.9,32.991,32.991,0,0,0,4.166-2.714,39.8,39.8,0,0,0,7.052-6.973,36.705,36.705,0,0,0,2.862-4.047,33.794,33.794,0,0,0,2.188-4.444,44.124,44.124,0,0,0,1.6-4.7,48.186,48.186,0,0,0,1.1-4.845,51.223,51.223,0,0,0,.741-9.9c-.03-1.658-.164-3.313-.352-4.96a46.7,46.7,0,0,0-.85-4.9,41.6,41.6,0,0,0-3.344-9.352,35.741,35.741,0,0,0-5.629-8.2h0l.069-.019a63.013,63.013,0,0,1-2.872,9.491,75.64,75.64,0,0,1-9.4,17.476c-.972,1.35-1.98,2.654-2.972,3.973s-1.974,2.637-2.94,3.966a70.507,70.507,0,0,0-5.278,8.27,37.69,37.69,0,0,0-3.509,9.056,28.47,28.47,0,0,0-.708,4.782,29.71,29.71,0,0,0,.12,4.824c.092.8.2,1.6.332,2.4.149.793.292,1.592.482,2.382.356,1.589.831,3.155,1.3,4.753a.041.041,0,0,1-.028.051.04.04,0,0,1-.046-.017,22.74,22.74,0,0,1-2.912-6.923,21.417,21.417,0,0,1-.451-2.491,26.025,26.025,0,0,1-.127-5.063,29.814,29.814,0,0,1,.774-5,39,39,0,0,1,3.687-9.338,71.8,71.8,0,0,1,5.424-8.375c.984-1.335,2.008-2.636,3.029-3.934s2.057-2.585,3.041-3.895a74.377,74.377,0,0,0,5.39-8.23,84.42,84.42,0,0,0,4.362-8.842c.637-1.518,1.234-3.053,1.772-4.61s1.052-3.126,1.453-4.724v0a.039.039,0,0,1,.048-.029.037.037,0,0,1,.02.013h0a35.932,35.932,0,0,1,5.854,8.106,40.541,40.541,0,0,1,3.52,9.39,46.892,46.892,0,0,1,1.314,9.955,51.8,51.8,0,0,1-.7,10.022,44.356,44.356,0,0,1-2.73,9.675,34.372,34.372,0,0,1-2.255,4.51,37.216,37.216,0,0,1-2.932,4.1,41.49,41.49,0,0,1-3.41,3.7,36.888,36.888,0,0,1-3.847,3.235,30,30,0,0,1-4.283,2.619A21.044,21.044,0,0,1,671,206.485a.04.04,0,0,1-.049-.03.041.041,0,0,1,.029-.048Z" transform="translate(-627.498 -119.856)" fill="#717d14" stroke="#717d14" stroke-miterlimit="10" stroke-width="1"/>
      <path id="Path_7" data-name="Path 7" d="M617.777,106.161a5.636,5.636,0,0,0-4.947-2.945,5.819,5.819,0,0,0-5.44,3.642,9.048,9.048,0,0,1,2.062-4.391,4.431,4.431,0,0,1,3.34-1.627,3.7,3.7,0,0,1,2.353.852A5.816,5.816,0,0,1,616.8,103.6,11.368,11.368,0,0,1,617.777,106.161Z" transform="translate(-586.848 -87.668)" fill="#717d14" stroke="#717d14" stroke-miterlimit="10" stroke-width="1"/>
      <path id="Path_9" data-name="Path 9" d="M726.9,106.161a5.635,5.635,0,0,0-4.947-2.945,5.818,5.818,0,0,0-5.44,3.642,9.046,9.046,0,0,1,2.062-4.391,4.431,4.431,0,0,1,3.34-1.627,3.706,3.706,0,0,1,2.353.852,5.819,5.819,0,0,1,1.657,1.912A11.345,11.345,0,0,1,726.9,106.161Z" transform="translate(-677.926 -87.668)" fill="#717d14" stroke="#717d14" stroke-miterlimit="10" stroke-width="1"/>
      <path id="Path_11" data-name="Path 11" d="M661.983,217.239a5.634,5.634,0,0,0,4.947,2.945,5.818,5.818,0,0,0,5.44-3.642,9.048,9.048,0,0,1-2.062,4.391,4.43,4.43,0,0,1-3.34,1.627,3.707,3.707,0,0,1-2.353-.852,5.816,5.816,0,0,1-1.657-1.912A11.356,11.356,0,0,1,661.983,217.239Z" transform="translate(-632.411 -184.233)" fill="#717d14" stroke="#717d14" stroke-miterlimit="10" stroke-width="1"/>
    </g>
    <path id="Path_156" data-name="Path 156" d="M1054.935,300.215a5.541,5.541,0,0,1-2.9.815,4.481,4.481,0,0,1-2.4-.544,3.9,3.9,0,0,1-1.359-1.449,5.434,5.434,0,0,1-.634-1.9,14.763,14.763,0,0,1-.136-1.993,9.979,9.979,0,0,1,.86-3.985,14.009,14.009,0,0,1,2.219-3.578,13.057,13.057,0,0,1,2.943-2.581,5.851,5.851,0,0,1,3.125-1,3.586,3.586,0,0,1,1.993.589,8.841,8.841,0,0,1,1.721,1.494,58.021,58.021,0,0,0-1.993,5.615,21.618,21.618,0,0,0-1,6.34,9.183,9.183,0,0,1-2.445,2.174m15.125-7.789c-.122,0-.181.031-.181.091a24.179,24.179,0,0,1-3.623,7.562q-1.994,2.493-3.261,2.491t-1.268-2.989a12.02,12.02,0,0,1,.5-3.351,25.839,25.839,0,0,1,1.223-3.351q.724-1.631,1.585-3.215t1.584-2.944h.091q.361-.724.634-1.4a3.753,3.753,0,0,0,.272-1.4,2.479,2.479,0,0,0-.634-1.585,10.969,10.969,0,0,0-1.449-1.449,10.461,10.461,0,0,0-1.539-1.087,4.351,4.351,0,0,0-.815-.407,1.646,1.646,0,0,0-.136.5,1.417,1.417,0,0,1-.227.589q-1-.632-2.128-1.223a6.872,6.872,0,0,0-3.125-.589,10.061,10.061,0,0,0-5.3,1.449,15.272,15.272,0,0,0-4.166,3.713,18.093,18.093,0,0,0-2.762,5.027,15.614,15.614,0,0,0-1,5.3,14.709,14.709,0,0,0,.272,2.581,10.949,10.949,0,0,0,1,2.944,6.91,6.91,0,0,0,2.038,2.445,5.458,5.458,0,0,0,3.4,1,7.974,7.974,0,0,0,2.581-.362,8.422,8.422,0,0,0,1.812-.86,5.7,5.7,0,0,0,1.268-1.087q.5-.588.86-1.042a6.834,6.834,0,0,0,2.039,3.94,4.428,4.428,0,0,0,2.762,1.132,4.725,4.725,0,0,0,3.577-1.766,17.741,17.741,0,0,0,2.671-3.94,27.1,27.1,0,0,0,1.676-4.075,13.238,13.238,0,0,0,.589-2.264c0-.06-.152-.181-.453-.362ZM1046,274.674a2.714,2.714,0,0,0-.815-1.992,3.01,3.01,0,0,0-4.212.091,3.278,3.278,0,0,0-.86,2.355,3.969,3.969,0,0,0,.544,2.083,1.942,1.942,0,0,0,1.812.905,3.265,3.265,0,0,0,1.9-.634,3.96,3.96,0,0,0,1.358-1.63,2.6,2.6,0,0,0,.272-1.178m-3.849,26.808a13.59,13.59,0,0,0,2.943-3.577,15.119,15.119,0,0,0,1.494-3.533q.408-1.583.408-1.494l-.181-.181a.87.87,0,0,0-.634-.272l-.181.091a15.859,15.859,0,0,1-4.076,6.023,6.613,6.613,0,0,1-3.8,1.857q-1,0-1.267-.634a4.164,4.164,0,0,1-.272-1.63,14.137,14.137,0,0,1,1.585-6.159q1.583-3.261,3.125-6.159a3.921,3.921,0,0,0,1-2.354,3.334,3.334,0,0,0-.725-2.219,7.406,7.406,0,0,0-1.54-1.4,8.326,8.326,0,0,0-1.494-.815c-.453-.181-.65-.331-.589-.453a14.934,14.934,0,0,1-1.042,2.808q-.861,1.9-1.857,4.347a53.047,53.047,0,0,0-1.811,5.253,19.747,19.747,0,0,0-.816,5.525,8.723,8.723,0,0,0,1.223,4.574,4.163,4.163,0,0,0,3.849,2.038,6.815,6.815,0,0,0,4.665-1.63m-17.117-.181a4.617,4.617,0,0,0,1.721.362,5.006,5.006,0,0,0,3.577-1.54,15.518,15.518,0,0,0,2.672-3.441,24.056,24.056,0,0,0,1.676-3.487,12.592,12.592,0,0,0,.588-1.766l-.181-.181a.782.782,0,0,0-.543-.272l-.181.091a18.685,18.685,0,0,1-3.759,6.023q-1.948,1.857-3.124,1.857a.978.978,0,0,1-1.042-.68,5.353,5.353,0,0,1-.226-1.675,10.626,10.626,0,0,1,.679-3.668,30.407,30.407,0,0,1,1.63-3.668q.952-1.811,1.993-3.487a31.716,31.716,0,0,0,1.766-3.215,2.029,2.029,0,0,0,.5-1.087,6.541,6.541,0,0,0,.136-1,2.477,2.477,0,0,0-.635-1.585,15.732,15.732,0,0,0-1.358-1.449,8.5,8.5,0,0,0-1.4-1.087,3.761,3.761,0,0,0-.77-.407,7.736,7.736,0,0,1-.635,1.947,10.637,10.637,0,0,1-1.041,1.54q-.679.862-1.766,2.174t-2.718,3.623q-1.63,2.309-3.849,6.068t-5.207,9.465a4.774,4.774,0,0,1-.091-1.087,12.574,12.574,0,0,1,1.087-5.162,45.184,45.184,0,0,1,2.4-4.664q1.313-2.218,2.4-4.121a7.083,7.083,0,0,0,1.086-3.442,2.807,2.807,0,0,0-.543-1.54,9.771,9.771,0,0,0-1.223-1.494,8.068,8.068,0,0,0-1.4-1.132,2.513,2.513,0,0,0-1-.452q-.182.634-.724,2.128a24.639,24.639,0,0,1-1.088,2.581q-.182.363-1,1.947a40.6,40.6,0,0,0-1.721,3.939,45.582,45.582,0,0,0-1.63,5.253,24.164,24.164,0,0,0-.725,5.887,11.191,11.191,0,0,0,.725,4.393,2.839,2.839,0,0,0,2.9,1.675,1.894,1.894,0,0,0,1.314-.544,7.723,7.723,0,0,0,1.041-1.177,8.44,8.44,0,0,0,.906-1.811,21.494,21.494,0,0,1,1.223-3.034q.951-2.038,2.129-4.347t2.4-4.528q1.221-2.219,2.037-3.759-.905,2.445-1.449,4.392a16.375,16.375,0,0,0-.544,4.393,8.2,8.2,0,0,0,1.269,4.8,4.157,4.157,0,0,0,1.72,1.449m-13.185-26.627a2.714,2.714,0,0,0-.815-1.992,3.01,3.01,0,0,0-4.212.091,3.278,3.278,0,0,0-.86,2.355,3.972,3.972,0,0,0,.544,2.083,1.943,1.943,0,0,0,1.812.905,3.266,3.266,0,0,0,1.9-.634,3.957,3.957,0,0,0,1.358-1.63,2.59,2.59,0,0,0,.272-1.178M1008,301.482a13.579,13.579,0,0,0,2.943-3.577,15.131,15.131,0,0,0,1.494-3.533q.409-1.583.408-1.494l-.181-.181a.871.871,0,0,0-.635-.272l-.181.091a15.853,15.853,0,0,1-4.076,6.023,6.614,6.614,0,0,1-3.8,1.857q-1,0-1.267-.634a4.154,4.154,0,0,1-.272-1.63,14.135,14.135,0,0,1,1.585-6.159q1.583-3.261,3.125-6.159a3.923,3.923,0,0,0,1-2.354,3.33,3.33,0,0,0-.724-2.219,7.419,7.419,0,0,0-1.54-1.4,8.359,8.359,0,0,0-1.494-.815c-.453-.181-.65-.331-.589-.453a14.958,14.958,0,0,1-1.042,2.808q-.86,1.9-1.856,4.347a53.016,53.016,0,0,0-1.811,5.253,19.744,19.744,0,0,0-.815,5.525,8.709,8.709,0,0,0,1.223,4.574,4.161,4.161,0,0,0,3.849,2.038,6.814,6.814,0,0,0,4.665-1.63m-24.38-2.4q.815-1.675,1.947-3.94t2.355-4.664q1.221-2.4,2.218-4.212-.906,2.445-1.63,5.163a19.709,19.709,0,0,0-.724,5.072,7.2,7.2,0,0,0,1.494,4.936,4.305,4.305,0,0,0,3.215,1.675,5.006,5.006,0,0,0,3.578-1.54,17.271,17.271,0,0,0,2.717-3.4,19.54,19.54,0,0,0,1.72-3.487,13.461,13.461,0,0,0,.589-1.811l-.181-.181a.872.872,0,0,0-.634-.272l-.181.091a19.225,19.225,0,0,1-3.713,6.023q-1.9,1.857-3.169,1.857a.915.915,0,0,1-.951-.679,5.326,5.326,0,0,1-.227-1.676,12.64,12.64,0,0,1,1.042-4.8,53.118,53.118,0,0,1,2.354-4.982q1.312-2.445,2.355-4.574a8.382,8.382,0,0,0,1.042-3.4,2.387,2.387,0,0,0-.635-1.494,12.17,12.17,0,0,0-1.358-1.4,15.074,15.074,0,0,0-2.083-1.449,8.562,8.562,0,0,1-1.314,3.079q-.862,1.178-2.445,3.215t-4.076,5.706q-2.492,3.668-6.294,10.551a14.947,14.947,0,0,1,1.223-5.389q1.131-2.671,2.4-5.027t2.355-4.347a7.3,7.3,0,0,0,1.087-3.261,2.482,2.482,0,0,0-.634-1.585,15.719,15.719,0,0,0-1.358-1.449,8.471,8.471,0,0,0-1.4-1.087,3.772,3.772,0,0,0-.77-.407,16.143,16.143,0,0,1-1.178,2.717q-.454.906-1,1.811a42.592,42.592,0,0,0-3.985,5.615q-2.9,4.53-7.155,12.318a13.84,13.84,0,0,1,1-4.891,55.374,55.374,0,0,1,2.265-5.162q1.266-2.534,2.581-4.755t2.038-3.668q-1.087-.633-2.083-1.087-.907-.452-1.811-.815a4.47,4.47,0,0,0-1.63-.362q-.182,0-1.177,1.811t-2.219,4.664a48.507,48.507,0,0,0-2.173,6.34,26.241,26.241,0,0,0-.951,6.928,9.308,9.308,0,0,0,.77,4.257,2.931,2.931,0,0,0,2.852,1.449,2.352,2.352,0,0,0,1.766-1.087,18.131,18.131,0,0,0,1.812-2.943q.95-1.855,2.037-4.392t2.445-5.434a31.255,31.255,0,0,0-1,4.03,22.483,22.483,0,0,0-.362,3.939,10.269,10.269,0,0,0,.771,4.347,2.939,2.939,0,0,0,2.943,1.63,4.659,4.659,0,0,0,1.268-.317,2.458,2.458,0,0,0,1.358-1.766,17.273,17.273,0,0,1,.906-2.038m-15.468-6.657-.18.091a19.214,19.214,0,0,1-3.714,6.023q-1.9,1.857-3.17,1.857a.915.915,0,0,1-.951-.679,5.345,5.345,0,0,1-.226-1.676,12.206,12.206,0,0,1,1.087-4.8q1.086-2.535,2.354-4.936t2.355-4.484a7.905,7.905,0,0,0,1.086-3.442,2.482,2.482,0,0,0-.634-1.585,10.428,10.428,0,0,0-1.4-1.4,15.544,15.544,0,0,0-1.4-1.042,3.272,3.272,0,0,0-.725-.407,13.108,13.108,0,0,1-.543,1.63,15.236,15.236,0,0,1-.815,1.721,11.989,11.989,0,0,1-1.087,1.9h-2.536c-.423,0-.876-.014-1.358-.046s-.922-.075-1.314-.136-.725-.12-1-.181-.407-.15-.407-.272a2.265,2.265,0,0,0,.271-.317,6.816,6.816,0,0,0,.362-.77c0-.06-.378-.181-1.132-.362s-1.645-.392-2.672-.634a2.245,2.245,0,0,0-.815-.181h-.544c-.484,0-.785.167-.905.5a4.615,4.615,0,0,0-.181,1.494,6.854,6.854,0,0,0,.543,2.4,5.056,5.056,0,0,0,2.083,2.4,46.856,46.856,0,0,1-1.585,5.66q-1.043,3.035-1.767,4.845a.081.081,0,0,0-.091.091v.272c0,.3.242.453.725.453a.525.525,0,0,0,.453-.317,12.9,12.9,0,0,0,.589-1.359q.408-1.04,1.314-3.079t2.626-5.57a2.937,2.937,0,0,0,.725.091h.815a18.952,18.952,0,0,0,1.9-.091q.9-.089,1.9-.272a46.528,46.528,0,0,0-1.766,5.253,20.512,20.512,0,0,0-.77,5.434,7.2,7.2,0,0,0,1.495,4.936,4.3,4.3,0,0,0,3.215,1.675,5,5,0,0,0,3.578-1.54,17.272,17.272,0,0,0,2.717-3.4,19.553,19.553,0,0,0,1.721-3.487,13.485,13.485,0,0,0,.589-1.811c0-.06-.152-.181-.453-.362a.817.817,0,0,0-.362-.091m-30.965-8.378a4.54,4.54,0,0,1,2.128-.679q1.267,0,1.268,1.177a3.778,3.778,0,0,1-.589,1.766,8.393,8.393,0,0,1-1.539,1.947,9.044,9.044,0,0,1-2.219,1.54,5.8,5.8,0,0,1-2.627.634,4.646,4.646,0,0,1-1.177-.091,25.308,25.308,0,0,1,2.264-3.985,8.65,8.65,0,0,1,2.491-2.309M948.64,294.69a.383.383,0,0,0-.317.226q-.136.228-.5.725a9.474,9.474,0,0,1-1.131,1.223,23.216,23.216,0,0,1-2.129,1.721,33.85,33.85,0,0,1-3.215,1.9,8.519,8.519,0,0,1-4.03,1.087,5.068,5.068,0,0,1-4.211-2.038,7.26,7.26,0,0,1-1.585-4.574,10.257,10.257,0,0,1,.544-3.261,3.551,3.551,0,0,0,1.449.77,8.1,8.1,0,0,0,2.445.317,10.782,10.782,0,0,0,7.29-2.853,9.957,9.957,0,0,0,2.219-3.034,8.362,8.362,0,0,0,.815-3.623,5,5,0,0,0-1.585-3.532,5.967,5.967,0,0,0-4.484-1.631,8.418,8.418,0,0,0-4.528,1.359,14.666,14.666,0,0,0-3.895,3.623,18.415,18.415,0,0,0-2.717,5.117,17.88,17.88,0,0,0-1,5.932,13.5,13.5,0,0,0,.407,3.079,9.821,9.821,0,0,0,1.4,3.215,8.3,8.3,0,0,0,2.626,2.491,7.509,7.509,0,0,0,3.985,1,11.119,11.119,0,0,0,5.57-1.358,16.679,16.679,0,0,0,3.94-2.989,20.271,20.271,0,0,0,3.17-4.437.525.525,0,0,0-.181-.362.82.82,0,0,0-.362-.091m-29.933,5.615a3.724,3.724,0,0,1-1.041.453c-.424.122-.847.226-1.269.317a5.308,5.308,0,0,1-1.086.136,4.431,4.431,0,0,1-2.446-.589,3.863,3.863,0,0,1-1.358-1.449,6.351,6.351,0,0,1-.634-1.948,13.041,13.041,0,0,1-.182-2.173,9.862,9.862,0,0,1,.861-4.031,13.423,13.423,0,0,1,2.219-3.487,12.173,12.173,0,0,1,2.989-2.491,6.423,6.423,0,0,1,3.26-.951,5.527,5.527,0,0,1,3.622,1.268q-1,2.9-2.263,6.611t-2.265,7.789q0,.272-.408.544m10.234,7.789a1.417,1.417,0,0,1,.589,1.177,3.444,3.444,0,0,1-1.494,3.08,4.991,4.991,0,0,1-2.672,1,4.1,4.1,0,0,1-3.034-1.358,6.89,6.89,0,0,1-1.766-3.17.9.9,0,0,0-.407-.091,1.626,1.626,0,0,1-.5-.09,2.04,2.04,0,0,1-.633-.091,34.694,34.694,0,0,0,4.482-.544,16.437,16.437,0,0,1,3.306-.362,3.639,3.639,0,0,1,2.128.453m1.223-29.072a7.772,7.772,0,0,0-1.358-1.087q-.815-.544-1.811-1.087a4.021,4.021,0,0,1-.5,1.54q-.407.726-.86,1.449a16.4,16.4,0,0,0-2.264-.815,11.374,11.374,0,0,0-3.079-.362,10.788,10.788,0,0,0-5.344,1.721,15.259,15.259,0,0,0-4.03,3.849,18.217,18.217,0,0,0-2.582,5.072,16.8,16.8,0,0,0-.9,5.208,21.984,21.984,0,0,0,.407,2.717,9.937,9.937,0,0,0,1.087,2.9,7.024,7.024,0,0,0,2.128,2.309,6.031,6.031,0,0,0,3.533.951,6.149,6.149,0,0,0,2.264-.362q.9-.36,1.721-.724c-.061.3-.122.559-.181.77s-.122.467-.182.77q-2.9.18-5.253.317a42.186,42.186,0,0,0-4.528.5c-.182.059-.467.181-.861.362a4.619,4.619,0,0,0-1.177.815,5,5,0,0,0-1.042,1.449,5.048,5.048,0,0,0-.453,2.264,8.252,8.252,0,0,0,.272,1.993q0-.363,1.358-.815a24.566,24.566,0,0,1,3.351-.815q1.99-.363,4.165-.679t3.8-.5a7.576,7.576,0,0,0,2.536,4.71,6.664,6.664,0,0,0,4.438,1.811,5.885,5.885,0,0,0,2.581-.589,8.473,8.473,0,0,0,2.174-1.495,6.793,6.793,0,0,0,1.494-2.083,5.585,5.585,0,0,0,.543-2.355,3.466,3.466,0,0,0-.905-2.49,5.784,5.784,0,0,0-2.355-1.449,14.419,14.419,0,0,0-3.26-.679q-1.813-.183-3.532-.272A115.527,115.527,0,0,1,926,292.7q2.535-5.523,4.71-10.144a3.819,3.819,0,0,0,.362-1.54,1.584,1.584,0,0,0-.091-.634,2.955,2.955,0,0,0-.815-1.358" transform="translate(18571.5 2579.283)" fill="#707e12"/>
    <text id="Brotes_y_flores_gourmet" data-name="Brotes y flores gourmet" transform="translate(19513.588 2906.013)" fill="#707e12" font-size="17" font-family="Montserrat-Medium, Montserrat" font-weight="500"><tspan x="0" y="0">Brotes y flores gourmet</tspan></text>
  </g>
</svg>
