<svg xmlns="http://www.w3.org/2000/svg" width="832.544" height="308.354" viewBox="0 0 832.544 308.354">
  <g id="Group_146" data-name="Group 146" transform="translate(-177.456 -126.646)">
    <g id="Group_144" data-name="Group 144" transform="translate(177.957 128.146)">
      <path id="Path_1" data-name="Path 1" d="M681.625,120.084c0,54.606-31.34,98.873-70,98.873s-70-44.267-70-98.873,31.339-98.873,70-98.873S681.625,65.478,681.625,120.084Z" transform="translate(-515.121 -21.211)" fill="none" stroke="#717d14" stroke-linecap="round" stroke-linejoin="round" stroke-width="3"/>
      <path id="Path_3" data-name="Path 3" d="M539.905,304.362a57.948,57.948,0,0,1-12.231-6.286,82.4,82.4,0,0,1-10.856-8.5,101.162,101.162,0,0,1-9.471-10.04,113.54,113.54,0,0,1-8.135-11.159,102.109,102.109,0,0,1-6.706-12.1,94.209,94.209,0,0,1-4.726-13.015,121.748,121.748,0,0,1-4.388-27.255,142.28,142.28,0,0,1,1.249-27.562,128.534,128.534,0,0,1,6.739-26.736,111.2,111.2,0,0,1,12.578-24.494,98.593,98.593,0,0,1,18.54-20.249v0a.11.11,0,0,1,.154.007.113.113,0,0,1,.027.06v.007c.589,4.487,1.483,8.933,2.469,13.345s2.118,8.8,3.374,13.137a231.943,231.943,0,0,0,9.1,25.5,204.2,204.2,0,0,0,12.1,24.153c2.27,3.881,4.7,7.719,7.064,11.583s4.758,7.737,7.019,11.689A197.061,197.061,0,0,1,575.958,241a106.929,106.929,0,0,1,7.1,26.636,81.8,81.8,0,0,1,.53,13.875,71.524,71.524,0,0,1-1.948,13.768A63.955,63.955,0,0,1,576.9,308.31a59.891,59.891,0,0,1-7.414,11.585.114.114,0,0,1-.158.016.116.116,0,0,1-.031-.131c1.789-4.21,3.579-8.331,5.055-12.551.768-2.1,1.413-4.229,2.069-6.346.613-2.134,1.16-4.279,1.666-6.432a81.53,81.53,0,0,0,1.855-13.121,78.122,78.122,0,0,0-.419-13.268,103.485,103.485,0,0,0-6.708-25.812,193.848,193.848,0,0,0-11.784-24.225q-3.32-5.9-6.766-11.748c-2.288-3.911-4.626-7.785-6.852-11.775a207.715,207.715,0,0,1-20.124-50.643,172.85,172.85,0,0,1-4.834-26.8l.181.074h0a98.059,98.059,0,0,0-17.954,20.57A114.1,114.1,0,0,0,492.6,162.153a127.978,127.978,0,0,0-3.871,13.1c-1.035,4.434-1.924,8.906-2.531,13.418a140.614,140.614,0,0,0-1.115,27.251,128.948,128.948,0,0,0,4.333,26.885,92.748,92.748,0,0,0,4.564,12.812,100.8,100.8,0,0,0,6.529,11.945,109.3,109.3,0,0,0,17.034,21.249,90.609,90.609,0,0,0,10.506,8.717,57.437,57.437,0,0,0,11.928,6.625l.007,0a.111.111,0,0,1-.077.209Z" transform="translate(-483.202 -73.504)" fill="#717d14" stroke="#717d14" stroke-miterlimit="10" stroke-width="1"/>
      <path id="Path_5" data-name="Path 5" d="M696.937,323.189a57.417,57.417,0,0,0,12.6-5.2,90.5,90.5,0,0,0,11.426-7.444A109.165,109.165,0,0,0,740.3,291.417a100.7,100.7,0,0,0,7.85-11.1,92.726,92.726,0,0,0,6-12.189,121.043,121.043,0,0,0,4.383-12.887,132.222,132.222,0,0,0,3.006-13.291,140.5,140.5,0,0,0,2.032-27.166c-.082-4.549-.45-9.087-.964-13.606a128.061,128.061,0,0,0-2.332-13.441,114.1,114.1,0,0,0-9.172-25.653A98.035,98.035,0,0,0,735.668,139.6h0l.19-.053a172.841,172.841,0,0,1-7.879,26.035,207.484,207.484,0,0,1-25.794,47.938c-2.667,3.7-5.432,7.279-8.152,10.9s-5.416,7.233-8.063,10.879a193.433,193.433,0,0,0-14.479,22.684,103.387,103.387,0,0,0-9.624,24.842,78.1,78.1,0,0,0-1.942,13.118,81.491,81.491,0,0,0,.328,13.234c.253,2.2.548,4.387.91,6.575.407,2.176.8,4.367,1.322,6.535.978,4.359,2.279,8.655,3.568,13.038a.112.112,0,0,1-.076.14.11.11,0,0,1-.126-.045,62.385,62.385,0,0,1-7.988-18.99,58.755,58.755,0,0,1-1.237-6.833,71.377,71.377,0,0,1-.348-13.888,81.776,81.776,0,0,1,2.123-13.708,106.961,106.961,0,0,1,10.113-25.613,196.953,196.953,0,0,1,14.879-22.973c2.7-3.662,5.509-7.23,8.309-10.792s5.642-7.092,8.341-10.683a203.989,203.989,0,0,0,14.785-22.575A231.543,231.543,0,0,0,726.793,165.1c1.746-4.164,3.385-8.375,4.86-12.647s2.887-8.574,3.986-12.958l0-.009a.108.108,0,0,1,.131-.078.1.1,0,0,1,.056.035h0a98.563,98.563,0,0,1,16.058,22.235,111.206,111.206,0,0,1,9.656,25.756,128.618,128.618,0,0,1,3.6,27.308,142.1,142.1,0,0,1-1.934,27.491,121.661,121.661,0,0,1-7.488,26.539,94.267,94.267,0,0,1-6.185,12.371,102.089,102.089,0,0,1-8.044,11.238,113.821,113.821,0,0,1-9.354,10.137,101.172,101.172,0,0,1-10.552,8.874,82.294,82.294,0,0,1-11.75,7.183,57.725,57.725,0,0,1-12.859,4.83.111.111,0,0,1-.133-.083.113.113,0,0,1,.08-.133Z" transform="translate(-577.651 -85.779)" fill="#717d14" stroke="#717d14" stroke-miterlimit="10" stroke-width="1"/>
      <path id="Path_7" data-name="Path 7" d="M635.882,115.436q-5.1-8.078-13.569-8.078-9.926,0-14.923,9.99a24.818,24.818,0,0,1,5.656-12.045q4.062-4.465,9.162-4.464a10.161,10.161,0,0,1,6.454,2.338,15.952,15.952,0,0,1,4.547,5.245A31.172,31.172,0,0,1,635.882,115.436Z" transform="translate(-551.043 -64.71)" fill="#717d14" stroke="#717d14" stroke-miterlimit="10" stroke-width="1"/>
      <path id="Path_9" data-name="Path 9" d="M745.009,115.436q-5.1-8.078-13.57-8.078-9.925,0-14.921,9.99a24.816,24.816,0,0,1,5.656-12.045q4.062-4.465,9.163-4.464a10.167,10.167,0,0,1,6.455,2.338,15.961,15.961,0,0,1,4.546,5.245A31.12,31.12,0,0,1,745.009,115.436Z" transform="translate(-610.658 -64.71)" fill="#717d14" stroke="#717d14" stroke-miterlimit="10" stroke-width="1"/>
      <path id="Path_11" data-name="Path 11" d="M661.983,218.454q5.1,8.079,13.57,8.078,9.924,0,14.921-9.99a24.816,24.816,0,0,1-5.656,12.045q-4.062,4.465-9.162,4.464a10.167,10.167,0,0,1-6.455-2.338,15.955,15.955,0,0,1-4.545-5.245A31.146,31.146,0,0,1,661.983,218.454Z" transform="translate(-580.867 -127.917)" fill="#717d14" stroke="#717d14" stroke-miterlimit="10" stroke-width="1"/>
    </g>
    <path id="Path_156" data-name="Path 156" d="M1316.455,349.626a15.2,15.2,0,0,1-7.95,2.236,12.294,12.294,0,0,1-6.583-1.491,10.7,10.7,0,0,1-3.728-3.975,14.9,14.9,0,0,1-1.738-5.217,40.453,40.453,0,0,1-.373-5.466,27.37,27.37,0,0,1,2.36-10.931,38.416,38.416,0,0,1,6.087-9.814,35.807,35.807,0,0,1,8.074-7.08,16.048,16.048,0,0,1,8.573-2.733,9.837,9.837,0,0,1,5.465,1.616,24.27,24.27,0,0,1,4.72,4.1,159.049,159.049,0,0,0-5.466,15.4,59.3,59.3,0,0,0-2.735,17.391,25.181,25.181,0,0,1-6.707,5.963m41.489-21.365c-.335,0-.5.085-.5.248q-4.475,13.915-9.937,20.743t-8.944,6.833q-3.48,0-3.479-8.2a32.974,32.974,0,0,1,1.367-9.192,70.885,70.885,0,0,1,3.354-9.192q1.985-4.473,4.348-8.82t4.345-8.074h.25q.99-1.985,1.74-3.851a10.3,10.3,0,0,0,.745-3.851,6.8,6.8,0,0,0-1.739-4.347,30.1,30.1,0,0,0-3.976-3.975,28.708,28.708,0,0,0-4.223-2.982,11.929,11.929,0,0,0-2.235-1.117,4.515,4.515,0,0,0-.374,1.366,3.887,3.887,0,0,1-.622,1.615q-2.732-1.734-5.836-3.354a18.849,18.849,0,0,0-8.573-1.615,27.6,27.6,0,0,0-14.533,3.975,41.89,41.89,0,0,0-11.427,10.186,49.631,49.631,0,0,0-7.578,13.788,42.829,42.829,0,0,0-2.733,14.534,40.343,40.343,0,0,0,.745,7.08,30.029,30.029,0,0,0,2.732,8.074,18.949,18.949,0,0,0,5.59,6.708,14.97,14.97,0,0,0,9.317,2.732,21.875,21.875,0,0,0,7.08-.993,23.1,23.1,0,0,0,4.97-2.36,15.649,15.649,0,0,0,3.477-2.982q1.361-1.612,2.359-2.857,1.736,7.7,5.592,10.808a12.148,12.148,0,0,0,7.577,3.105q5.459,0,9.812-4.845a48.683,48.683,0,0,0,7.327-10.807,74.346,74.346,0,0,0,4.6-11.178,36.3,36.3,0,0,0,1.616-6.211c0-.163-.416-.5-1.243-.994Zm-66.005-48.693a7.444,7.444,0,0,0-2.237-5.465,8.257,8.257,0,0,0-11.553.248,8.991,8.991,0,0,0-2.36,6.459,10.889,10.889,0,0,0,1.491,5.714,5.328,5.328,0,0,0,4.97,2.484,8.957,8.957,0,0,0,5.216-1.738,10.864,10.864,0,0,0,3.726-4.472,7.122,7.122,0,0,0,.747-3.23M1281.381,353.1a37.267,37.267,0,0,0,8.073-9.812,41.467,41.467,0,0,0,4.1-9.69q1.118-4.343,1.119-4.1l-.5-.5a2.386,2.386,0,0,0-1.74-.745l-.5.248q-4.974,11.43-11.181,16.52t-10.434,5.093q-2.737,0-3.476-1.739a11.42,11.42,0,0,1-.747-4.472,38.773,38.773,0,0,1,4.348-16.894q4.343-8.944,8.571-16.894,2.733-3.476,2.734-6.458a9.144,9.144,0,0,0-1.988-6.087,20.317,20.317,0,0,0-4.225-3.85,22.839,22.839,0,0,0-4.1-2.236c-1.242-.5-1.782-.909-1.616-1.243a40.935,40.935,0,0,1-2.857,7.7q-2.36,5.216-5.092,11.925a145.609,145.609,0,0,0-4.967,14.409,54.166,54.166,0,0,0-2.238,15.154,23.929,23.929,0,0,0,3.354,12.546q3.357,5.589,10.559,5.589a18.693,18.693,0,0,0,12.8-4.472m-46.952-.5a12.663,12.663,0,0,0,4.721.994,13.732,13.732,0,0,0,9.812-4.223,42.581,42.581,0,0,0,7.329-9.44,66.039,66.039,0,0,0,4.6-9.565,34.533,34.533,0,0,0,1.613-4.844l-.5-.5a2.146,2.146,0,0,0-1.49-.746l-.5.249q-4.976,11.429-10.312,16.52t-8.57,5.093a2.683,2.683,0,0,1-2.858-1.864,14.684,14.684,0,0,1-.621-4.6,29.149,29.149,0,0,1,1.863-10.062,83.474,83.474,0,0,1,4.471-10.061q2.612-4.967,5.465-9.565a86.966,86.966,0,0,0,4.845-8.82,5.564,5.564,0,0,0,1.367-2.981,17.929,17.929,0,0,0,.374-2.733,6.8,6.8,0,0,0-1.741-4.347,43.108,43.108,0,0,0-3.725-3.976,23.318,23.318,0,0,0-3.851-2.981,10.319,10.319,0,0,0-2.112-1.118,21.22,21.22,0,0,1-1.741,5.341,29.173,29.173,0,0,1-2.856,4.223q-1.863,2.364-4.844,5.963t-7.455,9.937q-4.471,6.335-10.557,16.645t-14.284,25.962a13.1,13.1,0,0,1-.25-2.982,34.491,34.491,0,0,1,2.981-14.16,123.973,123.973,0,0,1,6.583-12.794q3.6-6.085,6.585-11.3a19.43,19.43,0,0,0,2.98-9.441,7.7,7.7,0,0,0-1.49-4.223,26.793,26.793,0,0,0-3.354-4.1,22.125,22.125,0,0,0-3.85-3.106,6.9,6.9,0,0,0-2.733-1.241q-.5,1.74-1.987,5.838a67.589,67.589,0,0,1-2.983,7.08q-.5,1-2.732,5.342a111.319,111.319,0,0,0-4.72,10.806,124.985,124.985,0,0,0-4.47,14.409,66.28,66.28,0,0,0-1.99,16.148q0,7.453,1.99,12.05t7.947,4.6a5.2,5.2,0,0,0,3.6-1.491,21.186,21.186,0,0,0,2.855-3.229,23.149,23.149,0,0,0,2.485-4.969,58.946,58.946,0,0,1,3.354-8.323q2.608-5.589,5.839-11.925t6.583-12.421q3.35-6.085,5.588-10.311-2.484,6.707-3.975,12.049a44.909,44.909,0,0,0-1.491,12.05q0,8.2,3.48,13.166a11.4,11.4,0,0,0,4.719,3.975m-36.167-73.039a7.444,7.444,0,0,0-2.237-5.465,8.257,8.257,0,0,0-11.553.248,8.991,8.991,0,0,0-2.36,6.459,10.893,10.893,0,0,0,1.491,5.714,5.329,5.329,0,0,0,4.97,2.484,8.959,8.959,0,0,0,5.217-1.738,10.856,10.856,0,0,0,3.725-4.472,7.1,7.1,0,0,0,.747-3.23M1187.7,353.1a37.25,37.25,0,0,0,8.073-9.812,41.5,41.5,0,0,0,4.1-9.69q1.12-4.343,1.12-4.1l-.5-.5a2.391,2.391,0,0,0-1.741-.745l-.5.248q-4.971,11.43-11.18,16.52t-10.436,5.093q-2.735,0-3.476-1.739a11.393,11.393,0,0,1-.747-4.472,38.773,38.773,0,0,1,4.348-16.894q4.343-8.944,8.573-16.894,2.73-3.476,2.731-6.458a9.134,9.134,0,0,0-1.986-6.087,20.345,20.345,0,0,0-4.223-3.85,22.929,22.929,0,0,0-4.1-2.236c-1.243-.5-1.784-.909-1.616-1.243a41.047,41.047,0,0,1-2.859,7.7q-2.359,5.216-5.092,11.925a145.42,145.42,0,0,0-4.967,14.409A54.16,54.16,0,0,0,1161,339.44a23.889,23.889,0,0,0,3.354,12.546q3.355,5.589,10.558,5.589a18.693,18.693,0,0,0,12.8-4.472m-66.876-6.583q2.236-4.594,5.341-10.806t6.461-12.794q3.35-6.58,6.085-11.553-2.486,6.707-4.472,14.162a54.055,54.055,0,0,0-1.986,13.912q0,8.944,4.1,13.54t8.82,4.6a13.731,13.731,0,0,0,9.814-4.223,47.375,47.375,0,0,0,7.453-9.317,53.59,53.59,0,0,0,4.719-9.564,36.888,36.888,0,0,0,1.616-4.969l-.5-.5a2.392,2.392,0,0,0-1.74-.745l-.5.248q-4.972,11.43-10.186,16.52t-8.693,5.093a2.509,2.509,0,0,1-2.61-1.863,14.615,14.615,0,0,1-.622-4.6,34.67,34.67,0,0,1,2.858-13.166,145.743,145.743,0,0,1,6.458-13.665q3.6-6.707,6.46-12.546t2.858-9.317a6.55,6.55,0,0,0-1.741-4.1,33.387,33.387,0,0,0-3.724-3.851,41.338,41.338,0,0,0-5.714-3.975,23.484,23.484,0,0,1-3.6,8.446q-2.364,3.231-6.706,8.82T1129.9,315.963q-6.835,10.062-17.264,28.942a41.009,41.009,0,0,1,3.354-14.782q3.1-7.325,6.582-13.788t6.459-11.924q2.982-5.463,2.982-8.944a6.809,6.809,0,0,0-1.74-4.347,43.12,43.12,0,0,0-3.726-3.976,23.243,23.243,0,0,0-3.85-2.981,10.354,10.354,0,0,0-2.111-1.118,44.285,44.285,0,0,1-3.232,7.452q-1.244,2.486-2.732,4.969-2.98,2.982-10.931,15.4t-19.626,33.787a37.962,37.962,0,0,1,2.732-13.416,151.883,151.883,0,0,1,6.213-14.16q3.474-6.952,7.078-13.042t5.591-10.061q-2.982-1.736-5.714-2.982-2.488-1.24-4.969-2.235a12.261,12.261,0,0,0-4.471-.994q-.5,0-3.229,4.969t-6.087,12.794a133.063,133.063,0,0,0-5.961,17.391,71.975,71.975,0,0,0-2.609,19q0,7.7,2.112,11.676t7.824,3.975q2.479,0,4.844-2.981a49.715,49.715,0,0,0,4.97-8.074q2.607-5.089,5.589-12.049t6.708-14.906a85.719,85.719,0,0,0-2.734,11.055,61.674,61.674,0,0,0-.994,10.806q0,7.455,2.114,11.925t8.072,4.472a12.781,12.781,0,0,0,3.479-.869q2.479-.867,3.726-4.845a47.419,47.419,0,0,1,2.485-5.589M1078.4,328.26l-.5.248q-4.973,11.43-10.189,16.52t-8.695,5.093a2.51,2.51,0,0,1-2.608-1.863,14.661,14.661,0,0,1-.621-4.6,33.479,33.479,0,0,1,2.982-13.166q2.98-6.952,6.458-13.54t6.461-12.3q2.98-5.71,2.979-9.44a6.808,6.808,0,0,0-1.738-4.347,28.6,28.6,0,0,0-3.85-3.851,42.594,42.594,0,0,0-3.853-2.857,8.979,8.979,0,0,0-1.988-1.118,35.946,35.946,0,0,1-1.49,4.472,41.821,41.821,0,0,1-2.236,4.72,32.889,32.889,0,0,1-2.981,5.217h-6.955c-1.16,0-2.4-.038-3.726-.125s-2.529-.2-3.6-.372-1.988-.329-2.733-.5-1.116-.412-1.116-.746a6.227,6.227,0,0,0,.744-.869,18.712,18.712,0,0,0,.994-2.112c0-.163-1.036-.5-3.106-.994s-4.513-1.075-7.328-1.74a6.157,6.157,0,0,0-2.236-.5h-1.491c-1.328,0-2.153.459-2.483,1.367a12.659,12.659,0,0,0-.5,4.1,18.8,18.8,0,0,0,1.489,6.585,13.868,13.868,0,0,0,5.714,6.583,128.512,128.512,0,0,1-4.347,15.526q-2.861,8.326-4.846,13.291a.223.223,0,0,0-.249.248v.746c0,.831.665,1.242,1.988,1.242a1.439,1.439,0,0,0,1.243-.869,35.339,35.339,0,0,0,1.614-3.727q1.118-2.852,3.6-8.446t7.2-15.279a8.058,8.058,0,0,0,1.989.249h2.235a51.98,51.98,0,0,0,5.218-.249q2.477-.245,5.215-.746a127.628,127.628,0,0,0-4.845,14.41,56.26,56.26,0,0,0-2.112,14.906q0,8.944,4.1,13.54t8.818,4.6a13.728,13.728,0,0,0,9.814-4.223,47.377,47.377,0,0,0,7.454-9.317,53.628,53.628,0,0,0,4.72-9.564,36.973,36.973,0,0,0,1.614-4.969c0-.163-.416-.5-1.242-.994a2.241,2.241,0,0,0-.993-.248m-84.938-22.98a12.451,12.451,0,0,1,5.838-1.863q3.476,0,3.478,3.229a10.362,10.362,0,0,1-1.615,4.845,23.02,23.02,0,0,1-4.223,5.34,24.807,24.807,0,0,1-6.086,4.223,15.908,15.908,0,0,1-7.2,1.74,12.742,12.742,0,0,1-3.229-.249,69.416,69.416,0,0,1,6.21-10.931,23.724,23.724,0,0,1,6.833-6.335m31.426,29.191a1.05,1.05,0,0,0-.869.621q-.373.624-1.367,1.988a25.99,25.99,0,0,1-3.1,3.354,63.654,63.654,0,0,1-5.84,4.72,92.835,92.835,0,0,1-8.819,5.217,23.37,23.37,0,0,1-11.055,2.981,13.9,13.9,0,0,1-11.552-5.589,19.914,19.914,0,0,1-4.348-12.546,28.138,28.138,0,0,1,1.491-8.945,9.742,9.742,0,0,0,3.975,2.112,22.222,22.222,0,0,0,6.708.87,29.576,29.576,0,0,0,20-7.826,27.316,27.316,0,0,0,6.087-8.322,22.939,22.939,0,0,0,2.235-9.937q0-5.219-4.346-9.689t-12.3-4.473a23.09,23.09,0,0,0-12.42,3.728,40.231,40.231,0,0,0-10.683,9.937,50.516,50.516,0,0,0-7.454,14.037,49.043,49.043,0,0,0-2.732,16.272,37.027,37.027,0,0,0,1.117,8.446,26.94,26.94,0,0,0,3.851,8.82,22.78,22.78,0,0,0,7.2,6.833,20.6,20.6,0,0,0,10.931,2.732,30.5,30.5,0,0,0,15.279-3.726,45.75,45.75,0,0,0,10.806-8.2,55.6,55.6,0,0,0,8.7-12.172,1.439,1.439,0,0,0-.5-.994,2.25,2.25,0,0,0-.994-.249m-82.107,15.4a10.216,10.216,0,0,1-2.854,1.242c-1.163.334-2.323.621-3.48.869a14.561,14.561,0,0,1-2.979.372,12.155,12.155,0,0,1-6.71-1.615,10.6,10.6,0,0,1-3.726-3.975,17.425,17.425,0,0,1-1.738-5.342,35.789,35.789,0,0,1-.5-5.961,27.05,27.05,0,0,1,2.361-11.056,36.815,36.815,0,0,1,6.086-9.564,33.391,33.391,0,0,1,8.2-6.833,17.617,17.617,0,0,1,8.943-2.609,15.161,15.161,0,0,1,9.936,3.479q-2.734,7.954-6.208,18.135T943.9,348.383q0,.745-1.119,1.491m28.073,21.365a3.886,3.886,0,0,1,1.614,3.229q0,5.713-4.1,8.447t-7.328,2.732a11.246,11.246,0,0,1-8.323-3.726,18.9,18.9,0,0,1-4.845-8.7,2.468,2.468,0,0,0-1.118-.249,4.461,4.461,0,0,1-1.367-.247,5.6,5.6,0,0,1-1.737-.249,95.171,95.171,0,0,0,12.3-1.491,45.088,45.088,0,0,1,9.068-.994q4.221,0,5.837,1.242m3.354-79.746a21.315,21.315,0,0,0-3.726-2.981q-2.236-1.491-4.969-2.982a11.031,11.031,0,0,1-1.367,4.223q-1.116,1.992-2.36,3.976a44.993,44.993,0,0,0-6.21-2.236,31.2,31.2,0,0,0-8.446-.994,29.592,29.592,0,0,0-14.658,4.72,41.861,41.861,0,0,0-11.053,10.559,49.978,49.978,0,0,0-7.083,13.912,46.073,46.073,0,0,0-2.482,14.285,60.3,60.3,0,0,0,1.117,7.452,27.258,27.258,0,0,0,2.981,7.95,19.268,19.268,0,0,0,5.838,6.335,16.543,16.543,0,0,0,9.69,2.609,16.867,16.867,0,0,0,6.21-.994q2.479-.988,4.721-1.987c-.166.831-.333,1.534-.5,2.111s-.335,1.281-.5,2.112q-7.951.494-14.409.869a115.733,115.733,0,0,0-12.421,1.367c-.5.162-1.281.5-2.361.993A12.672,12.672,0,0,0,909,365.028,13.7,13.7,0,0,0,906.139,369a13.845,13.845,0,0,0-1.243,6.211,22.629,22.629,0,0,0,.747,5.466q0-.995,3.726-2.236a67.375,67.375,0,0,1,9.193-2.235q5.459-1,11.425-1.863t10.434-1.367a20.783,20.783,0,0,0,6.956,12.919q5.713,4.967,12.174,4.969a16.143,16.143,0,0,0,7.08-1.615,23.242,23.242,0,0,0,5.963-4.1,18.631,18.631,0,0,0,4.1-5.714,15.323,15.323,0,0,0,1.49-6.46,9.508,9.508,0,0,0-2.483-6.832,15.868,15.868,0,0,0-6.46-3.975,39.553,39.553,0,0,0-8.943-1.863q-4.974-.5-9.689-.745a316.916,316.916,0,0,1,12.172-30.557q6.952-15.151,12.919-27.825a10.476,10.476,0,0,0,.994-4.223,4.348,4.348,0,0,0-.248-1.74,8.106,8.106,0,0,0-2.237-3.726" transform="translate(-558.41 -1.073)" fill="#707e12"/>
    <text id="Brotes_y_flores_gourmet" data-name="Brotes y flores gourmet" transform="translate(449 423)" fill="#707e12" font-size="47" font-family="Montserrat-Medium, Montserrat" font-weight="500"><tspan x="0" y="0">Brotes y flores gourmet</tspan></text>
  </g>
</svg>
